<?xml version="1.0" standalone="no"?>
<!DOCTYPE svg PUBLIC "-//W3C//DTD SVG 1.1//EN" "http://www.w3.org/Graphics/SVG/1.1/DTD/svg11.dtd" >
<svg xmlns="http://www.w3.org/2000/svg" xmlns:xlink="http://www.w3.org/1999/xlink" version="1.1">
<metadata></metadata>
<defs>
<font id="unica_oneregular" horiz-adv-x="1044" >
<font-face units-per-em="2048" ascent="1638" descent="-410" />
<missing-glyph horiz-adv-x="471" />
<glyph horiz-adv-x="0" />
<glyph unicode="&#xd;" horiz-adv-x="681" />
<glyph unicode=" "  horiz-adv-x="471" />
<glyph unicode="&#x09;" horiz-adv-x="471" />
<glyph unicode="&#xa0;" horiz-adv-x="471" />
<glyph unicode="!" horiz-adv-x="593" d="M215 829v502h164v-502l-31 -399h-102zM225 0v225h144v-225h-144z" />
<glyph unicode="&#x22;" horiz-adv-x="839" d="M174 1239v123h184v-123l-61 -338h-61zM481 1239v123h185v-123l-62 -338h-61z" />
<glyph unicode="#" horiz-adv-x="1290" d="M82 399v123h223l43 287h-203v123h224l61 399h123l-61 -399h389l61 399h123l-61 -399h204v-123h-225l-43 -287h205v-123h-223l-62 -399h-123l62 399h-389l-62 -399h-123l62 399h-205zM428 522h389l43 287h-389z" />
<glyph unicode="$" d="M176 256v174h143v-182q0 -133 152 -154v524l-184 181q-63 63 -87 123.5t-24 152.5q0 264 295 285v176h102v-176q274 -25 275 -285v-174h-143v182q0 125 -132 150v-516l191 -182q59 -66 81.5 -126.5t22.5 -152.5q0 -264 -295 -285v-176h-102v176q-295 20 -295 285z M319 1083q0 -70 14.5 -110.5t63.5 -85.5l74 -72v422q-152 -19 -152 -154zM573 94q152 21 152 154q0 68 -15.5 109.5t-62.5 88.5l-74 72v-424z" />
<glyph unicode="%" horiz-adv-x="1331" d="M174 899v313q0 156 184 156q90 0 137.5 -41t47.5 -115v-313q0 -72 -46 -114t-137.5 -42t-138.5 41t-47 115zM272 899q0 -68 86 -68t86 68v313q0 68 -86 68t-86 -68v-313zM440 -123l359 1577h92l-359 -1577h-92zM788 135v314q0 156 185 155q90 0 137 -40.5t47 -114.5v-314 q0 -72 -46 -113.5t-137 -41.5t-138.5 40.5t-47.5 114.5zM887 135q0 -68 86 -68t86 68v314q0 68 -86 67.5t-86 -67.5v-314z" />
<glyph unicode="&#x26;" d="M143 256v184q0 219 148 275q-106 166 -107 258v102q0 137 85 212t257 75q330 0 330 -287v-174h-143v182q0 74 -48.5 115t-144.5 41t-144 -41t-48 -115v-110q0 -74 112 -236h561v-123h-165v-358q0 -287 -346.5 -287t-346.5 287zM287 248q0 -74 51 -115t151.5 -41t151.5 41 t51 115v366h-264q-141 0 -141 -174v-192z" />
<glyph unicode="'" horiz-adv-x="532" d="M174 1239v123h184v-123l-61 -338h-61z" />
<glyph unicode="(" horiz-adv-x="659" d="M174 154v1024q0 137 88 211.5t264 74.5v-123q-209 0 -209 -163v-1024q0 -164 207 -164v-123q-174 0 -262 75t-88 212z" />
<glyph unicode=")" horiz-adv-x="659" d="M51 1341v123q176 0 264 -74.5t88 -211.5v-1024q0 -137 -88 -212t-262 -75v123q207 0 207 164v1024q0 164 -209 163z" />
<glyph unicode="*" horiz-adv-x="782" d="M113 1147l24 94l203 -53l-25 -94zM186 930l129 164l76 -62l-129 -164zM340 1188v205h102v-205l203 53l25 -94l-203 -53l129 -164l-76 -62l-129 164l76 62l-25 94h-102z" />
<glyph unicode="+" d="M195 604v123h266v266h123v-266h266v-123h-266v-266h-123v266h-266z" />
<glyph unicode="," horiz-adv-x="532" d="M174 18v207h184v-194l-100 -258l-65 12l30 215z" />
<glyph unicode="-" horiz-adv-x="1003" d="M195 614v123h614v-123h-614z" />
<glyph unicode="." horiz-adv-x="532" d="M174 0v225h184v-225h-184z" />
<glyph unicode="/" horiz-adv-x="778" d="M123 -205l409 1741h123l-409 -1741h-123z" />
<glyph unicode="0" d="M174 256v819q0 137 87 212t260 75t261 -75t88 -212v-819q0 -137 -87 -212t-260 -75t-261 75t-88 212zM317 256q0 -164 205 -164t205 164v819q0 164 -205 164t-205 -164v-819z" />
<glyph unicode="1" d="M147 1137l336 194h144v-1208h225v-123h-594v123h225v1067l-274 -158z" />
<glyph unicode="2" d="M184 0v123l389 551q8 10 31 43t33 47t28.5 43t27.5 46t20 40q20 41 20 80v110q0 74 -48 115t-144.5 41t-144.5 -41t-48 -115v-182h-143v174q0 287 330 287q172 0 257 -75t85 -212v-102q0 -70 -44.5 -153t-148.5 -232l-326 -465h516v-123h-690z" />
<glyph unicode="3" d="M178 256v174h144v-182q0 -74 51 -115t151.5 -41t151.5 41t51 115v192q0 66 -49 120t-133 54h-207v103h186q86 0 134.5 53t48.5 121v192q0 74 -48.5 115t-144.5 41t-144 -41t-48 -115v-182h-144v174q0 287 330 287q172 0 257 -75t85 -212v-184q0 -174 -145 -223 q166 -45 165 -228v-184q0 -287 -346 -287t-346 287z" />
<glyph unicode="4" d="M63 307v123l543 901h144v-901h102v-123h-102v-307h-144v307h-543zM207 430h399v664z" />
<glyph unicode="5" d="M178 256v174h144v-182q0 -74 51 -115t151.5 -41t151.5 41t51 115v254q0 66 -49 120t-133 54h-346v655h651v-123h-508v-409h203q158 0 241.5 -80t83.5 -217v-246q0 -287 -346 -287t-346 287z" />
<glyph unicode="6" d="M174 256l2 2h-2v817q0 287 346 287t346 -287v-133h-143v141q0 156 -203 156t-203 -156v-368q70 74 223.5 73.5t241.5 -75t88 -211.5v-246q0 -137 -87 -212t-260 -75t-261 75t-88 212zM317 256q0 -164 205 -164t205 164v246q0 164 -199.5 164t-210.5 -150v-260z" />
<glyph unicode="7" d="M166 1208v123h670v-123l-375 -1208h-148l375 1208h-522z" />
<glyph unicode="8" d="M176 256v195q0 168 148 215q-147 43 -148 215v194q0 287 330 287q172 0 257 -75t85 -212v-194q0 -168 -137 -213q158 -43 157 -217v-195q0 -287 -346 -287t-346 287zM319 248q0 -74 51.5 -115t152 -41t151.5 41t51 115v203q0 66 -48 114.5t-134 48.5h-41 q-86 0 -134.5 -49t-48.5 -114v-203zM319 881q0 -68 48.5 -116t134.5 -48h20q86 0 134.5 48t48.5 116v202q0 74 -48.5 115t-144.5 41t-144.5 -41t-48.5 -115v-202z" />
<glyph unicode="9" d="M174 829v246q0 137 87 212t260 75t261 -75t88 -212l-2 -2h2v-817q0 -287 -346 -287t-346 287v133h144v-141q0 -156 202.5 -156t202.5 156v366q-68 -72 -222.5 -71.5t-242.5 75t-88 211.5zM317 829q0 -164 205 -164t205 164v246q0 164 -205 164t-205 -164v-246z" />
<glyph unicode=":" horiz-adv-x="532" d="M174 0v225h184v-225h-184zM174 819v225h184v-225h-184z" />
<glyph unicode=";" horiz-adv-x="532" d="M174 18v207h184v-194l-100 -258l-65 12l30 215zM174 819v225h184v-225h-184z" />
<glyph unicode="&#x3c;" d="M195 621v90l600 348l55 -109l-498 -284l498 -285l-55 -109z" />
<glyph unicode="=" d="M195 440v123h655v-123h-655zM195 768v123h655v-123h-655z" />
<glyph unicode="&#x3e;" d="M195 381l497 285l-497 284l55 109l600 -348v-90l-600 -349z" />
<glyph unicode="?" horiz-adv-x="897" d="M102 901v174q0 287 330 287q172 0 257 -75t85 -212v-102q0 -70 -44 -155t-148 -230l-113 -158h-82v123l84 121q8 10 30.5 43t33 47t29 43t27.5 46t19 40q20 41 21 80v110q0 74 -48 115t-144.5 41t-144.5 -41t-48 -115v-182h-144zM360 0v225h144v-225h-144z" />
<glyph unicode="@" horiz-adv-x="1527" d="M246 293v745q0 203 129 314.5t386 111.5t389 -111.5t132 -314.5v-442h-264v-264q0 -227 -264.5 -227.5t-264.5 227.5v149q0 106 55.5 162.5t184.5 56.5h158v308q0 53 -33 83.5t-94 30.5q-123 0 -123 -114v-179h-133v172q0 227 257 227t257 -227v-301h158v338 q0 334 -412 334t-412 -334v-745q0 -334 412 -334t412 334v51h106v-51q0 -203 -129 -314.5t-387 -111.5t-389 111.5t-131 314.5zM625 324q0 -113 131 -113t131 115v270h-168q-94 0 -94 -109v-163z" />
<glyph unicode="A" horiz-adv-x="980" d="M82 0l301 1331h215l301 -1331h-143l-70 307h-391l-70 -307h-143zM322 430h335l-168 741z" />
<glyph unicode="B" horiz-adv-x="1034" d="M205 0v1331h309q160 0 243 -75.5t83 -211.5v-122q0 -174 -146 -224q166 -45 166 -227v-184q0 -137 -82 -212t-243 -75h-330zM348 123h187q86 0 134 48t48 116v184q0 66 -49.5 120t-132.5 54h-187v-522zM348 748h166q86 0 134 53t48 121v122q0 66 -48 115t-134 49h-166 v-460z" />
<glyph unicode="C" horiz-adv-x="1003" d="M174 256v819q0 137 84 212t252 75t254 -75t86 -212v-194h-143v194q0 164 -195 164t-195 -164v-819q0 -164 195 -164t195 164v113h143v-113q0 -137 -84 -212t-252 -75t-254 75t-86 212z" />
<glyph unicode="D" horiz-adv-x="1034" d="M205 0v1331h330q160 0 242.5 -75.5t82.5 -211.5v-757q0 -137 -81.5 -212t-243.5 -75h-330zM348 123h187q86 0 134 48t48 116v757q0 66 -48 115t-134 49h-187v-1085z" />
<glyph unicode="E" horiz-adv-x="911" d="M205 0v1331h583v-123h-440v-471h359v-123h-359v-491h461v-123h-604z" />
<glyph unicode="F" horiz-adv-x="849" d="M205 0v1331h563v-123h-420v-471h338v-123h-338v-614h-143z" />
<glyph unicode="G" horiz-adv-x="1024" d="M174 256v819q0 137 84 212t252 75t254 -75t86 -212v-112h-143v112q0 164 -195 164t-195 -164v-819q0 -78 33 -121t120 -43t162 69.5t75 135.5v256h-230v123h373v-676h-62l-53 131q-43 -74 -112.5 -118t-151.5 -44q-297 0 -297 287z" />
<glyph unicode="H" horiz-adv-x="1099" d="M205 0v1331h143v-594h404v594h143v-1331h-143v614h-404v-614h-143z" />
<glyph unicode="I" horiz-adv-x="634" d="M143 0v123h103v1085h-103v123h349v-123h-103v-1085h103v-123h-349z" />
<glyph unicode="J" horiz-adv-x="778" d="M41 236v133h143v-142q0 -135 131 -135q135 0 136 135v981h-267v123h410v-1095q0 -131 -74 -199t-205 -68t-202.5 67.5t-71.5 199.5z" />
<glyph unicode="K" horiz-adv-x="931" d="M207 0v1331h143v-565l357 565h159l-362 -573l387 -758h-158l-315 621l-68 -109v-512h-143z" />
<glyph unicode="L" horiz-adv-x="763" d="M205 0v1331h143v-1208h375v-123h-518z" />
<glyph unicode="M" horiz-adv-x="1308" d="M205 0v1331h215l233 -878l236 878h215v-1331h-143v1102l-240 -897h-133l-240 897v-1102h-143z" />
<glyph unicode="N" horiz-adv-x="1140" d="M205 0v1331h143l445 -1024v1024h143v-1331h-143l-445 1024v-1024h-143z" />
<glyph unicode="O" d="M174 256v819q0 137 87 212t260 75t261 -75t88 -212v-819q0 -137 -87 -212t-260 -75t-261 75t-88 212zM317 256q0 -164 205 -164t205 164v819q0 164 -205 164t-205 -164v-819z" />
<glyph unicode="P" horiz-adv-x="942" d="M184 0v1331h310q160 0 242.5 -75.5t82.5 -211.5v-348q0 -137 -82 -211.5t-243 -74.5h-166v-410h-144zM328 532h166q182 0 182 164v348q0 78 -47 121t-135 43h-166v-676z" />
<glyph unicode="Q" d="M174 256v819q0 137 87 212t260 75t261 -75t88 -212v-819q0 -252 -276 -283l61 -264h-123l-61 262q-297 25 -297 285zM317 256q0 -164 205 -164t205 164v819q0 164 -205 164t-205 -164v-819z" />
<glyph unicode="R" horiz-adv-x="993" d="M205 0v1331h309q160 0 243 -75.5t83 -211.5v-286q0 -209 -181 -266l252 -492h-157l-240 471h-166v-471h-143zM348 594h166q182 0 182 164v286q0 78 -47 121t-135 43h-166v-614z" />
<glyph unicode="S" horiz-adv-x="1019" d="M164 256v174h143v-182q0 -74 51.5 -115t151.5 -41t151.5 41t51.5 111.5t-15.5 112.5t-62.5 89l-361 353q-63 63 -86.5 123.5t-23.5 152.5q0 137 85 212t257 75q330 0 330 -287v-174h-144v182q0 74 -48 115t-144.5 41t-144.5 -41t-48 -112.5t14.5 -112.5t63.5 -86 l367 -352q59 -66 81.5 -126.5t22.5 -152.5q0 -287 -346 -287t-346 287z" />
<glyph unicode="T" horiz-adv-x="798" d="M61 1208v123h676v-123h-266v-1208h-143v1208h-267z" />
<glyph unicode="U" horiz-adv-x="1064" d="M184 256v1075h144v-1075q0 -164 204.5 -164t204.5 164v1075h144v-1075q0 -137 -87 -212t-260.5 -75t-261.5 75t-88 212z" />
<glyph unicode="V" horiz-adv-x="980" d="M82 1331h143l264 -1173l267 1173h143l-301 -1331h-215z" />
<glyph unicode="W" horiz-adv-x="1398" d="M92 1331h144l167 -1124l220 1124h153l219 -1124l168 1124h144l-199 -1331h-201l-209 1063l-206 -1063h-201z" />
<glyph unicode="X" horiz-adv-x="925" d="M82 0l307 686l-287 645h150l219 -495l223 495h150l-297 -663l297 -668h-150l-231 518l-232 -518h-149z" />
<glyph unicode="Y" horiz-adv-x="921" d="M51 1331h152l258 -686l258 686h151l-338 -856v-475h-143v477z" />
<glyph unicode="Z" horiz-adv-x="854" d="M72 0v123l551 1085h-521v123h670v-123l-551 -1085h541v-123h-690z" />
<glyph unicode="[" horiz-adv-x="659" d="M174 -123v1577h352v-123h-209v-1331h207v-123h-350z" />
<glyph unicode="\" horiz-adv-x="778" d="M123 1536h123l409 -1741h-123z" />
<glyph unicode="]" horiz-adv-x="659" d="M51 1331v123h352v-1577h-350v123h207v1331h-209z" />
<glyph unicode="^" d="M205 864l272 467h90l273 -467l-109 -55l-209 365l-209 -365z" />
<glyph unicode="_" horiz-adv-x="860" d="M39 0h782v-123h-782v123z" />
<glyph unicode="`" horiz-adv-x="649" d="M184 1624l111 111l252 -252l-53 -53l-232 116z" />
<glyph unicode="a" horiz-adv-x="1024" d="M164 256v205q0 287 295 287h237v335q0 74 -47 115t-139 41q-182 0 -182 -156v-120h-144v112q0 137 81 212t245 75t247 -75t83 -212v-1075h-62l-53 131q-43 -74 -112.5 -118t-153.5 -44q-295 0 -295 287zM307 256q0 -78 33 -121t119 -43t159.5 66.5t77.5 132.5v334h-237 q-86 0 -119 -43t-33 -121v-205z" />
<glyph unicode="b" horiz-adv-x="1034" d="M205 0v1331h309q160 0 243 -75.5t83 -211.5v-122q0 -174 -146 -224q166 -45 166 -227v-184q0 -137 -82 -212t-243 -75h-330zM348 123h187q182 0 182 164v184q0 78 -47 126t-135 48h-187v-522zM348 748h166q90 0 136 47t46 127v122q0 78 -47 121t-135 43h-166v-460z" />
<glyph unicode="c" horiz-adv-x="1003" d="M174 256v819q0 137 84 212t252 75t254 -75t86 -212v-194h-143v194q0 164 -195 164t-195 -164v-819q0 -164 195 -164t195 164v113h143v-113q0 -137 -84 -212t-252 -75t-254 75t-86 212z" />
<glyph unicode="d" horiz-adv-x="1034" d="M205 0v1331h330q160 0 242.5 -75.5t82.5 -211.5v-757q0 -137 -81.5 -212t-243.5 -75h-330zM348 123h187q182 0 182 164v757q0 78 -47 121t-135 43h-187v-1085z" />
<glyph unicode="e" horiz-adv-x="1024" d="M174 256v819q0 137 84 212t252 75t254 -75t86 -212v-450h-533v-369q0 -164 195 -164t195 164v113h143v-113q0 -137 -84 -212t-252 -75t-254 75t-86 212zM317 748h390v327q0 164 -195 164t-195 -164v-327z" />
<glyph unicode="f" horiz-adv-x="849" d="M205 0v1331h563v-123h-420v-471h338v-123h-338v-614h-143z" />
<glyph unicode="g" horiz-adv-x="1024" d="M174 256v819q0 137 84 212t252 75t254 -75t86 -212v-112h-143v112q0 164 -195 164t-195 -164v-819q0 -164 195 -164t195 164v297h-230v123h373v-420q0 -137 -84 -212t-252 -75t-254 75t-86 212z" />
<glyph unicode="h" horiz-adv-x="1099" d="M205 0v1331h143v-594h404v594h143v-1331h-143v614h-404v-614h-143z" />
<glyph unicode="i" horiz-adv-x="552" d="M205 0v1331h143v-1331h-143z" />
<glyph unicode="j" horiz-adv-x="778" d="M41 236v133h143v-142q0 -135 131 -135q135 0 136 135v1104h143v-1095q0 -131 -74 -199t-205 -68t-202.5 67.5t-71.5 199.5z" />
<glyph unicode="k" horiz-adv-x="931" d="M207 0v1331h143v-565l357 565h159l-362 -573l387 -758h-158l-315 621l-68 -109v-512h-143z" />
<glyph unicode="l" horiz-adv-x="763" d="M205 0v1331h143v-1208h375v-123h-518z" />
<glyph unicode="m" horiz-adv-x="1576" d="M205 0v1331h61l51 -131q43 74 113 118t152 44q207 0 264 -150q98 150 258 150q289 0 289 -287v-1075h-144v1075q0 164 -147 164q-86 0 -159 -69.5t-73 -135.5v-1034h-143v1075q0 164 -147 164q-86 0 -159 -66.5t-73 -132.5v-1040h-143z" />
<glyph unicode="n" horiz-adv-x="1075" d="M205 0v1331h61l51 -133q98 164 273 164q301 0 301 -287v-1075h-143v1075q0 78 -34 121t-124 43t-166 -69.5t-76 -135.5v-1034h-143z" />
<glyph unicode="o" d="M174 256v819q0 137 87 212t260 75t261 -75t88 -212v-819q0 -137 -87 -212t-260 -75t-261 75t-88 212zM317 256q0 -164 205 -164t205 164v819q0 164 -205 164t-205 -164v-819z" />
<glyph unicode="p" horiz-adv-x="942" d="M184 0v1331h310q160 0 242.5 -75.5t82.5 -211.5v-348q0 -137 -82 -211.5t-243 -74.5h-166v-410h-144zM328 532h166q182 0 182 164v348q0 78 -47 121t-135 43h-166v-676z" />
<glyph unicode="q" d="M174 256v819q0 137 87 212t260 75t261 -75t88 -212v-819q0 -152 -122 -219l296 -57l-22 -109l-498 98q-174 0 -262 75t-88 212zM317 256q0 -164 205 -164t205 164v819q0 164 -205 164t-205 -164v-819z" />
<glyph unicode="r" horiz-adv-x="819" d="M205 0v1331h61l60 -151q66 182 209 182q244 0 243 -266v-133h-137v141q0 135 -113 135q-68 0 -124 -78t-56 -225v-936h-143z" />
<glyph unicode="s" horiz-adv-x="1019" d="M164 256v174h143v-182q0 -74 51.5 -115t151.5 -41t151.5 41t51.5 111.5t-15.5 112.5t-62.5 89l-361 353q-63 63 -86.5 123.5t-23.5 152.5q0 137 85 212t257 75q330 0 330 -287v-174h-144v182q0 74 -48 115t-144.5 41t-144.5 -41t-48 -112.5t14.5 -112.5t63.5 -86 l367 -352q59 -66 81.5 -126.5t22.5 -152.5q0 -287 -346 -287t-346 287z" />
<glyph unicode="t" horiz-adv-x="768" d="M174 236v1095h451v-123h-308v-981q0 -57 30 -96t84 -39t83 38t29 97v244h143v-235q0 -129 -68.5 -198t-185.5 -69t-187.5 68.5t-70.5 198.5z" />
<glyph unicode="u" horiz-adv-x="1075" d="M184 256v1075h144v-1075q0 -78 33.5 -121t123.5 -43t166 69.5t76 135.5v1034h143v-1331h-61l-53 131q-45 -74 -116 -118t-155 -44q-301 0 -301 287z" />
<glyph unicode="v" horiz-adv-x="980" d="M82 1331h143l264 -1173l267 1173h143l-301 -1331h-215z" />
<glyph unicode="w" horiz-adv-x="1556" d="M184 256v1075h144v-1075q0 -164 189.5 -164t189.5 164v1075h143v-1075q0 -164 189.5 -164t189.5 164v1075h143v-1075q0 -135 -86 -211t-255 -76t-253 119q-80 -119 -251 -119t-257 76t-86 211z" />
<glyph unicode="x" horiz-adv-x="925" d="M82 0l307 686l-287 645h150l219 -495l223 495h150l-297 -663l297 -668h-150l-231 518l-232 -518h-149z" />
<glyph unicode="y" horiz-adv-x="962" d="M133 659v672h143v-672q0 -164 204 -164l1 1q205 0 205 163v672h143v-672q0 -252 -274 -282v-377h-143v377q-279 31 -279 282z" />
<glyph unicode="z" horiz-adv-x="854" d="M72 0v123l551 1085h-521v123h670v-123l-551 -1085h541v-123h-690z" />
<glyph unicode="{" horiz-adv-x="659" d="M53 614v103q57 0 89 34.5t32 79.5v347q0 137 88 211.5t264 74.5v-123q-209 0 -209 -163v-347q0 -127 -143 -159v-17q143 -33 143 -155v-346q0 -164 209 -164v-123q-176 0 -264 75t-88 212v346q0 45 -31.5 79.5t-89.5 34.5z" />
<glyph unicode="|" horiz-adv-x="552" d="M225 -205v1741h123v-1741h-123z" />
<glyph unicode="}" horiz-adv-x="659" d="M51 -10q209 0 209 164v346q0 123 143 155v17q-143 33 -143 159v347q0 164 -209 163v123q176 0 264 -74.5t88 -211.5v-347q0 -45 32 -79.5t89 -34.5v-103q-57 0 -89 -34.5t-32 -79.5v-346q0 -137 -88 -212t-264 -75v123z" />
<glyph unicode="~" d="M195 604v123q63 -53 130.5 -53t183.5 50t190.5 50t150.5 -47v-123q-70 47 -139.5 47t-185 -50t-192.5 -50t-138 53z" />
<glyph unicode="&#xa1;" horiz-adv-x="593" d="M215 0v502l31 399h102l31 -399v-502h-164zM225 1106v225h144v-225h-144z" />
<glyph unicode="&#xa2;" d="M195 358v615q0 272 307 284v279h102v-281q131 -16 198.5 -88.5t67.5 -193.5v-133h-143v133q0 125 -123 155v-927q123 27 123 157v52h143v-52q0 -252 -266 -282v-281h-102v277q-152 8 -229.5 82.5t-77.5 203.5zM338 358q0 -150 164 -163v940q-164 -12 -164 -162v-615z" />
<glyph unicode="&#xa3;" d="M102 532v103h95l8 440q6 287 342 287q154 0 231.5 -75t77.5 -212v-174h-143v182q0 74 -43 115t-129 41q-188 0 -193 -156l-8 -448h393v-103h-395l-8 -409h547v-123h-752l61 113l9 419h-93z" />
<glyph unicode="&#xa4;" d="M45 260l203 203q-31 63 -31 151v103q0 92 31 151l-203 203l72 72l196 -197q76 57 207 57.5t211 -57.5l197 197l71 -72l-200 -201q32 -63 32 -153v-103q0 -90 -32 -153l200 -201l-71 -72l-195 195q-74 -55 -207 -55t-213 57l-196 -197zM360 614q0 -164 166 -163 q162 -1 162 163v103q0 164 -166 164q-162 0 -162 -164v-103z" />
<glyph unicode="&#xa5;" d="M113 1331h151l258 -686l258 686h152l-277 -696h236v-103h-277l-20 -55v-149h297v-103h-297v-225h-143v225h-297v103h297v149l-23 55h-274v103h233z" />
<glyph unicode="&#xa6;" horiz-adv-x="552" d="M225 -205v656h123v-656h-123zM225 881v655h123v-655h-123z" />
<glyph unicode="&#xa7;" horiz-adv-x="978" d="M143 1198v21q0 137 85 211.5t257 74.5q330 0 330 -286v-113h-143v121q0 74 -48.5 114.5t-144.5 40.5t-144 -41t-48 -114v-29q0 -49 29.5 -93t136.5 -151l219 -217v-71h-125l-285 282q-119 119 -119 250zM164 143v113h143v-121q0 -74 48 -114.5t144.5 -40.5t144.5 40.5 t48 114.5v29q0 49 -29.5 93t-136.5 151l-219 217v71h125l285 -282q119 -119 119 -250v-21q0 -137 -85 -211.5t-257 -74.5q-330 0 -330 286z" />
<glyph unicode="&#xa8;" horiz-adv-x="778" d="M174 1464v226h143v-226h-143zM461 1464v226h143v-226h-143z" />
<glyph unicode="&#xa9;" horiz-adv-x="1024" d="M164 733v342q0 137 87 212t260 75t261 -75t88 -212v-342q0 -137 -87 -212t-260 -75t-261 75t-88 212zM236 733q0 -225 276 -225t276 225v342q0 225 -276 225t-276 -225v-342zM332 750v313q0 156 179 156t179 -156v-109h-98v109q0 68 -81 67.5t-81 -67.5v-313 q0 -68 81 -68t81 68v69h98v-69q0 -74 -45 -115t-134 -41t-134 41t-45 115z" />
<glyph unicode="&#xaa;" horiz-adv-x="704" d="M164 952v37q0 154 158 154h102v131q0 63 -77 63t-77 -63v-51h-96v47q0 154 173 153.5t173 -153.5v-455h-33l-38 66q-51 -82 -127 -82q-158 0 -158 153zM262 952q1 -65 60 -65q37 0 69.5 27.5t32.5 54.5v90h-102q-59 0 -60 -66v-41z" />
<glyph unicode="&#xab;" horiz-adv-x="925" d="M123 621v90l272 348l101 -88l-240 -305l240 -306l-101 -88zM471 621v90l272 348l101 -88l-240 -305l240 -306l-101 -88z" />
<glyph unicode="&#xac;" d="M195 604v123h655v-369h-111v246h-544z" />
<glyph unicode="&#xad;" horiz-adv-x="1003" d="M195 614v123h614v-123h-614z" />
<glyph unicode="&#xae;" horiz-adv-x="1024" d="M164 733v342q0 137 87 212t260 75t261 -75t88 -212v-342q0 -137 -87 -212t-260 -75t-261 75t-88 212zM236 733q0 -225 276 -225t276 225v342q0 225 -276 225t-276 -225v-342zM346 614v584h164q86 0 130 -42t44 -114v-63q0 -104 -82 -137l115 -228h-107l-102 211h-64v-211 h-98zM444 913h66q76 0 76 66v63q0 68 -76 68h-66v-197z" />
<glyph unicode="&#xaf;" horiz-adv-x="749" d="M154 1516v122h442v-122h-442z" />
<glyph unicode="&#xb0;" horiz-adv-x="776" d="M174 954v254q0 154 214 154t214 -154v-254q0 -154 -214 -153.5t-214 153.5zM272 954q0 -66 116 -66t116 66v254q0 68 -116 68t-116 -68v-254z" />
<glyph unicode="&#xb1;" d="M195 0v123h655v-123h-655zM195 604v123h266v266h123v-266h266v-123h-266v-266h-123v266h-266z" />
<glyph unicode="&#xb2;" horiz-adv-x="624" d="M131 748v79l207 254q61 78 61 107v12q0 63 -79.5 63.5t-79.5 -63.5v-41h-99v37q0 156 178.5 156t178.5 -156v-8q0 -61 -97 -178l-145 -174h240v-88h-365z" />
<glyph unicode="&#xb3;" horiz-adv-x="624" d="M127 883v26h98v-30q0 -63 85 -63.5t85 63.5v43q0 27 -20.5 49t-52.5 22h-97v78h86q35 0 54.5 21.5t19.5 48.5v59q0 63 -80 63.5t-80 -63.5v-41h-98v37q0 156 178 156t178 -156v-55q0 -76 -69 -109q80 -29 80 -110v-39q0 -156 -183.5 -156t-183.5 156z" />
<glyph unicode="&#xb4;" horiz-adv-x="649" d="M205 1483l252 252l110 -111l-78 -78l-231 -116z" />
<glyph unicode="&#xb5;" horiz-adv-x="1075" d="M184 -512v1638h144v-870q0 -78 33.5 -121t123.5 -43t166 69.5t76 135.5v829h143v-1126h-61l-53 131q-45 -74 -116 -118t-155 -44q-133 0 -196 68l39 -242v-307h-144z" />
<glyph unicode="&#xb6;" horiz-adv-x="978" d="M102 973v102q0 137 85 212t257 75q330 0 330 -287v-1075h-143v1083q0 74 -48 115t-144.5 41t-144.5 -41t-48 -115v-110q0 -49 28.5 -91t39 -56.5t47 -57.5t45.5 -53l83 -101v-614h-143v565l-51 64q-113 137 -153 205.5t-40 138.5z" />
<glyph unicode="&#xb7;" horiz-adv-x="532" d="M174 553v225h184v-225h-184z" />
<glyph unicode="&#xb8;" horiz-adv-x="624" d="M147 -319h99v-21q0 -63 85 -63t85 63v51q0 29 -20.5 51.5t-53.5 22.5h-123l43 219h96l-26 -131h10q84 0 128 -44t44 -118v-47q0 -156 -183.5 -156t-183.5 156v17z" />
<glyph unicode="&#xb9;" horiz-adv-x="624" d="M117 1225l180 106h88v-583h-98v477l-127 -72z" />
<glyph unicode="&#xba;" horiz-adv-x="714" d="M174 954v318q0 154 183.5 154t183.5 -154v-318q0 -154 -183.5 -153.5t-183.5 153.5zM272 954q0 -66 85 -66t85 66v318q0 68 -85 67.5t-85 -67.5v-318z" />
<glyph unicode="&#xbb;" horiz-adv-x="925" d="M82 360l240 306l-240 305l100 88l273 -348v-90l-273 -349zM430 360l240 306l-240 305l100 88l273 -348v-90l-273 -349z" />
<glyph unicode="&#xbc;" horiz-adv-x="808" d="M143 647v60h523v-60h-523zM156 109v79l272 396h92v-387h51v-88h-51v-109h-98v109h-266zM188 1241l181 107h88v-584h-99v477l-127 -72zM264 197h158v217z" />
<glyph unicode="&#xbd;" horiz-adv-x="808" d="M143 647v60h523v-60h-523zM188 1241l181 107h88v-584h-99v477l-127 -72zM221 0v80l207 254q61 76 61 106v13q0 63 -79.5 63t-79.5 -63v-41h-99v37q0 156 178.5 155.5t178.5 -155.5v-9q0 -61 -96 -178l-146 -174h240v-88h-365z" />
<glyph unicode="&#xbe;" horiz-adv-x="808" d="M143 647v60h523v-60h-523zM156 109v79l272 396h92v-387h51v-88h-51v-109h-98v109h-266zM221 899v27h98v-31q0 -63 85 -63.5t85 63.5v43q0 27 -20 49.5t-53 22.5h-97v77h87q35 0 54 21.5t19 48.5v60q0 63 -80 63t-80 -63v-41h-98v36q0 156 178.5 156t178.5 -156v-55 q0 -76 -70 -108q80 -29 80 -111v-39q0 -156 -183.5 -156t-183.5 156zM264 197h158v217z" />
<glyph unicode="&#xbf;" horiz-adv-x="897" d="M41 256v102q0 70 44 155t148 230l113 158h82v-123l-84 -121q-8 -10 -30.5 -42.5t-33 -47t-29 -43t-27.5 -46t-19 -40.5q-20 -41 -21 -80v-110q0 -74 48.5 -115t144.5 -41t144 41t48 115v182h144v-174q0 -287 -330 -287q-172 0 -257 75t-85 212zM311 1106v225h144v-225 h-144z" />
<glyph unicode="&#xc0;" horiz-adv-x="980" d="M82 0l301 1331h215l301 -1331h-143l-70 307h-391l-70 -307h-143zM309 1624l111 111l252 -252l-54 -53l-231 116zM322 430h335l-168 741z" />
<glyph unicode="&#xc1;" horiz-adv-x="980" d="M82 0l301 1331h215l301 -1331h-143l-70 307h-391l-70 -307h-143zM309 1483l252 252l111 -111l-78 -78l-232 -116zM322 430h335l-168 741z" />
<glyph unicode="&#xc2;" horiz-adv-x="980" d="M82 0l301 1331h215l301 -1331h-143l-70 307h-391l-70 -307h-143zM256 1483l201 231h65l201 -231l-53 -53l-181 126l-180 -126zM322 430h335l-168 741z" />
<glyph unicode="&#xc3;" horiz-adv-x="980" d="M82 0l301 1331h215l301 -1331h-143l-70 307h-391l-70 -307h-143zM248 1628l84 29q20 -57 69 -58q31 0 88.5 39t109.5 39t89 -41t43 -110l-84 -29q-20 57 -69 57q-31 0 -88.5 -38.5t-109.5 -38.5t-89 41t-43 110zM322 430h335l-168 741z" />
<glyph unicode="&#xc4;" horiz-adv-x="980" d="M82 0l301 1331h215l301 -1331h-143l-70 307h-391l-70 -307h-143zM274 1464v226h144v-226h-144zM322 430h335l-168 741zM561 1464v226h144v-226h-144z" />
<glyph unicode="&#xc5;" horiz-adv-x="980" d="M82 0l301 1331h215l301 -1331h-143l-70 307h-391l-70 -307h-143zM315 1556v41q0 154 174.5 154t174.5 -154v-41q0 -154 -174.5 -153.5t-174.5 153.5zM322 430h335l-168 741zM418 1556q0 -63 71.5 -63t71.5 63v41q0 63 -71.5 63t-71.5 -63v-41z" />
<glyph unicode="&#xc6;" horiz-adv-x="1392" d="M0 0l485 1331h785v-123h-441v-553h359v-123h-359v-409h461v-123h-604v532h-348l-195 -532h-143zM383 655h303v553h-102z" />
<glyph unicode="&#xc7;" horiz-adv-x="1003" d="M174 256v819q0 137 84 212t252 75t254 -75t86 -212v-194h-143v194q0 164 -195 164t-195 -164v-819q0 -164 195 -164t195 164v113h143v-113q0 -272 -309 -285l-19 -98h10q84 0 128.5 -44t44.5 -118v-47q0 -156 -183.5 -156t-183.5 156v17h98v-21q0 -63 85 -63t85 63v51 q0 29 -20.5 51.5t-53.5 22.5h-122l36 188q-135 14 -203.5 87t-68.5 196z" />
<glyph unicode="&#xc8;" horiz-adv-x="911" d="M205 0v1331h583v-123h-440v-471h359v-123h-359v-491h461v-123h-604zM315 1624l111 111l252 -252l-53 -53l-232 116z" />
<glyph unicode="&#xc9;" horiz-adv-x="911" d="M205 0v1331h583v-123h-440v-471h359v-123h-359v-491h461v-123h-604zM336 1483l252 252l110 -111l-77 -78l-232 -116z" />
<glyph unicode="&#xca;" horiz-adv-x="911" d="M205 0v1331h583v-123h-440v-471h359v-123h-359v-491h461v-123h-604zM283 1483l200 231h66l201 -231l-54 -53l-180 126l-180 -126z" />
<glyph unicode="&#xcb;" horiz-adv-x="911" d="M205 0v1331h583v-123h-440v-471h359v-123h-359v-491h461v-123h-604zM301 1464v226h143v-226h-143zM588 1464v226h143v-226h-143z" />
<glyph unicode="&#xcc;" horiz-adv-x="634" d="M137 1624l111 111l252 -252l-54 -53l-231 116zM143 0v123h103v1085h-103v123h349v-123h-103v-1085h103v-123h-349z" />
<glyph unicode="&#xcd;" horiz-adv-x="634" d="M137 1483l252 252l111 -111l-78 -78l-232 -116zM143 0v123h103v1085h-103v123h349v-123h-103v-1085h103v-123h-349z" />
<glyph unicode="&#xce;" horiz-adv-x="634" d="M84 1483l201 231h65l201 -231l-53 -53l-181 126l-180 -126zM143 0v123h103v1085h-103v123h349v-123h-103v-1085h103v-123h-349z" />
<glyph unicode="&#xcf;" horiz-adv-x="634" d="M102 1464v226h144v-226h-144zM143 0v123h103v1085h-103v123h349v-123h-103v-1085h103v-123h-349zM389 1464v226h143v-226h-143z" />
<glyph unicode="&#xd0;" horiz-adv-x="1034" d="M63 625v102h142v604h330q160 0 242.5 -75.5t82.5 -211.5v-757q0 -137 -82 -212t-243 -75h-330v625h-142zM348 123h187q86 0 134 48t48 116v757q0 66 -48 115t-134 49h-187v-481h248v-102h-248v-502z" />
<glyph unicode="&#xd1;" horiz-adv-x="1140" d="M205 0v1331h143l445 -1024v1024h143v-1331h-143l-445 1024v-1024h-143zM328 1628l84 29q20 -57 69 -58q31 0 88.5 39t109.5 39t89 -41t43 -110l-84 -29q-21 57 -70 57q-31 0 -88 -38.5t-109 -38.5t-89 41t-43 110z" />
<glyph unicode="&#xd2;" d="M174 256v819q0 137 87 212t260 75t261 -75t88 -212v-819q0 -137 -87 -212t-260 -75t-261 75t-88 212zM317 256q0 -164 205 -164t205 164v819q0 164 -205 164t-205 -164v-819zM340 1624l111 111l251 -252l-53 -53l-231 116z" />
<glyph unicode="&#xd3;" d="M174 256v819q0 137 87 212t260 75t261 -75t88 -212v-819q0 -137 -87 -212t-260 -75t-261 75t-88 212zM317 256q0 -164 205 -164t205 164v819q0 164 -205 164t-205 -164v-819zM340 1483l252 252l110 -111l-77 -78l-232 -116z" />
<glyph unicode="&#xd4;" d="M174 256v819q0 137 87 212t260 75t261 -75t88 -212v-819q0 -137 -87 -212t-260 -75t-261 75t-88 212zM289 1483l200 231h66l201 -231l-54 -53l-180 126l-180 -126zM317 256q0 -164 205 -164t205 164v819q0 164 -205 164t-205 -164v-819z" />
<glyph unicode="&#xd5;" d="M174 256v819q0 137 87 212t260 75t261 -75t88 -212v-819q0 -137 -87 -212t-260 -75t-261 75t-88 212zM281 1628l84 29q20 -57 69 -58q31 0 88.5 39t109.5 39t89 -41t43 -110l-84 -29q-21 57 -70 57q-31 0 -88 -38.5t-109.5 -38.5t-89 41t-42.5 110zM317 256 q0 -164 205 -164t205 164v819q0 164 -205 164t-205 -164v-819z" />
<glyph unicode="&#xd6;" d="M174 256v819q0 137 87 212t260 75t261 -75t88 -212v-819q0 -137 -87 -212t-260 -75t-261 75t-88 212zM307 1464v226h144v-226h-144zM317 256q0 -164 205 -164t205 164v819q0 164 -205 164t-205 -164v-819zM594 1464v226h143v-226h-143z" />
<glyph unicode="&#xd7;" d="M211 440l225 226l-225 225l86 86l225 -225l226 225l86 -86l-226 -225l226 -226l-86 -86l-226 226l-225 -226z" />
<glyph unicode="&#xd8;" d="M174 256v819q0 137 87 212t259 75q55 0 111 -10l24 102h93l-29 -129q152 -68 151 -250v-819q0 -137 -87 -212t-259 -75q-55 0 -112 11l-23 -103h-92l29 127q-152 70 -152 252zM317 256q0 -72 39 -111l248 1084q-41 10 -84 10q-203 0 -203 -164v-819zM440 100q33 -8 84 -8 q203 0 203 164v819q0 66 -41 111z" />
<glyph unicode="&#xd9;" horiz-adv-x="1064" d="M184 256v1075h144v-1075q0 -164 204.5 -164t204.5 164v1075h144v-1075q0 -137 -87 -212t-260.5 -75t-261.5 75t-88 212zM330 1624l110 111l252 -252l-53 -53l-231 116z" />
<glyph unicode="&#xda;" horiz-adv-x="1064" d="M184 256v1075h144v-1075q0 -164 204.5 -164t204.5 164v1075h144v-1075q0 -137 -87 -212t-260.5 -75t-261.5 75t-88 212zM391 1483l252 252l111 -111l-78 -78l-232 -116z" />
<glyph unicode="&#xdb;" horiz-adv-x="1064" d="M184 256v1075h144v-1075q0 -164 204.5 -164t204.5 164v1075h144v-1075q0 -137 -87 -212t-260.5 -75t-261.5 75t-88 212zM299 1483l201 231h65l201 -231l-53 -53l-181 126l-180 -126z" />
<glyph unicode="&#xdc;" horiz-adv-x="1064" d="M184 256v1075h144v-1075q0 -164 204.5 -164t204.5 164v1075h144v-1075q0 -137 -87 -212t-260.5 -75t-261.5 75t-88 212zM317 1464v226h144v-226h-144zM604 1464v226h144v-226h-144z" />
<glyph unicode="&#xdd;" horiz-adv-x="921" d="M51 1331h152l258 -686l258 686h151l-338 -856v-475h-143v477zM319 1483l252 252l111 -111l-78 -78l-231 -116z" />
<glyph unicode="&#xde;" horiz-adv-x="942" d="M184 0v1331h144v-205h166q160 0 242.5 -75.5t82.5 -210.5v-348q0 -137 -82 -212t-243 -75h-166v-205h-144zM328 328h166q182 0 182 164v348q0 78 -47 121t-135 43h-166v-676z" />
<glyph unicode="&#xdf;" horiz-adv-x="1071" d="M205 0v1075q0 287 330 287q172 0 257 -75t85 -212v-184q0 -174 -146 -223q166 -45 166 -228v-153q0 -287 -346 -287h-100v123h100q100 0 151.5 41t51.5 115v161q0 66 -49.5 120t-133.5 54h-63v103h43q86 0 134 53t48 121v192q0 74 -48 115t-144.5 41t-144.5 -41t-48 -115 v-1083h-143z" />
<glyph unicode="&#xe0;" horiz-adv-x="1024" d="M164 256v205q0 287 295 287h237v335q0 74 -47 115t-139 41q-182 0 -182 -156v-120h-144v112q0 137 81 212t245 75t247 -75t83 -212v-1075h-62l-53 131q-43 -74 -112.5 -118t-153.5 -44q-295 0 -295 287zM307 256q0 -78 33 -121t119 -43t159.5 66.5t77.5 132.5v334h-237 q-86 0 -119 -43t-33 -121v-205zM309 1624l111 111l252 -252l-54 -53l-231 116z" />
<glyph unicode="&#xe1;" horiz-adv-x="1024" d="M164 256v205q0 287 295 287h237v335q0 74 -47 115t-139 41q-182 0 -182 -156v-120h-144v112q0 137 81 212t245 75t247 -75t83 -212v-1075h-62l-53 131q-43 -74 -112.5 -118t-153.5 -44q-295 0 -295 287zM307 256q0 -78 33 -121t119 -43t159.5 66.5t77.5 132.5v334h-237 q-86 0 -119 -43t-33 -121v-205zM393 1483l252 252l111 -111l-78 -78l-232 -116z" />
<glyph unicode="&#xe2;" horiz-adv-x="1024" d="M164 256v205q0 287 295 287h237v335q0 74 -47 115t-139 41q-182 0 -182 -156v-120h-144v112q0 137 81 212t245 75t247 -75t83 -212v-1075h-62l-53 131q-43 -74 -112.5 -118t-153.5 -44q-295 0 -295 287zM279 1483l200 231h66l200 -231l-53 -53l-180 126l-180 -126z M307 256q0 -78 33 -121t119 -43t159.5 66.5t77.5 132.5v334h-237q-86 0 -119 -43t-33 -121v-205z" />
<glyph unicode="&#xe3;" horiz-adv-x="1024" d="M164 256v205q0 287 295 287h237v335q0 74 -47 115t-139 41q-182 0 -182 -156v-120h-144v112q0 137 81 212t245 75t247 -75t83 -212v-1075h-62l-53 131q-43 -74 -112.5 -118t-153.5 -44q-295 0 -295 287zM270 1628l84 29q20 -57 70 -58q31 0 88 39t109.5 39t89.5 -41 t43 -110l-84 -29q-21 57 -70 57q-31 0 -88 -38.5t-109.5 -38.5t-89.5 41t-43 110zM307 256q0 -78 33 -121t119 -43t159.5 66.5t77.5 132.5v334h-237q-86 0 -119 -43t-33 -121v-205z" />
<glyph unicode="&#xe4;" horiz-adv-x="1024" d="M164 256v205q0 287 295 287h237v335q0 74 -47 115t-139 41q-182 0 -182 -156v-120h-144v112q0 137 81 212t245 75t247 -75t83 -212v-1075h-62l-53 131q-43 -74 -112.5 -118t-153.5 -44q-295 0 -295 287zM297 1464v226h143v-226h-143zM307 256q0 -78 33 -121t119 -43 t159.5 66.5t77.5 132.5v334h-237q-86 0 -119 -43t-33 -121v-205zM584 1464v226h143v-226h-143z" />
<glyph unicode="&#xe5;" horiz-adv-x="1024" d="M164 256v205q0 287 295 287h237v335q0 74 -47 115t-139 41q-182 0 -182 -156v-120h-144v112q0 137 81 212t245 75t247 -75t83 -212v-1075h-62l-53 131q-43 -74 -112.5 -118t-153.5 -44q-295 0 -295 287zM307 256q0 -78 33 -121t119 -43t159.5 66.5t77.5 132.5v334h-237 q-86 0 -119 -43t-33 -121v-205zM338 1556v41q0 154 174 154t174 -154v-41q0 -154 -174 -153.5t-174 153.5zM440 1556q0 -63 72 -63t72 63v41q0 63 -72 63t-72 -63v-41z" />
<glyph unicode="&#xe6;" horiz-adv-x="1546" d="M164 256v205q0 287 295 287h237v339q0 70 -48 111t-138 41t-136 -42t-46 -114v-120h-144v112q0 137 82 212t249 75t253 -86q86 86 259 86t259 -75t86 -212v-450h-532v-369q0 -164 194.5 -164t194.5 164v113h143v-113q0 -137 -84 -212t-252 -75q-244 0 -315 156 q-96 -156 -262 -156q-295 0 -295 287zM307 256q0 -78 33 -121t120 -43t161.5 69.5t74.5 135.5v328h-237q-86 0 -119 -43t-33 -121v-205zM840 748h389v327q0 164 -197 164q-92 0 -142 -40t-50 -112v-339z" />
<glyph unicode="&#xe7;" horiz-adv-x="1003" d="M174 256v819q0 137 84 212t252 75t254 -75t86 -212v-194h-143v194q0 164 -195 164t-195 -164v-819q0 -164 195 -164t195 164v113h143v-113q0 -272 -309 -285l-19 -98h10q84 0 128.5 -44t44.5 -118v-47q0 -156 -183.5 -156t-183.5 156v17h98v-21q0 -63 85 -63t85 63v51 q0 29 -20.5 51.5t-53.5 22.5h-122l36 188q-135 14 -203.5 87t-68.5 196z" />
<glyph unicode="&#xe8;" horiz-adv-x="1024" d="M174 256v819q0 137 84 212t252 75t254 -75t86 -212v-450h-533v-369q0 -164 195 -164t195 164v113h143v-113q0 -137 -84 -212t-252 -75t-254 75t-86 212zM309 1624l111 111l252 -252l-54 -53l-231 116zM317 748h390v327q0 164 -195 164t-195 -164v-327z" />
<glyph unicode="&#xe9;" horiz-adv-x="1024" d="M174 256v819q0 137 84 212t252 75t254 -75t86 -212v-450h-533v-369q0 -164 195 -164t195 164v113h143v-113q0 -137 -84 -212t-252 -75t-254 75t-86 212zM317 748h390v327q0 164 -195 164t-195 -164v-327zM393 1483l252 252l111 -111l-78 -78l-232 -116z" />
<glyph unicode="&#xea;" horiz-adv-x="1024" d="M174 256v819q0 137 84 212t252 75t254 -75t86 -212v-450h-533v-369q0 -164 195 -164t195 164v113h143v-113q0 -137 -84 -212t-252 -75t-254 75t-86 212zM279 1483l200 231h66l200 -231l-53 -53l-180 126l-180 -126zM317 748h390v327q0 164 -195 164t-195 -164v-327z" />
<glyph unicode="&#xeb;" horiz-adv-x="1024" d="M174 256v819q0 137 84 212t252 75t254 -75t86 -212v-450h-533v-369q0 -164 195 -164t195 164v113h143v-113q0 -137 -84 -212t-252 -75t-254 75t-86 212zM297 1464v226h143v-226h-143zM317 748h390v327q0 164 -195 164t-195 -164v-327zM584 1464v226h143v-226h-143z" />
<glyph unicode="&#xec;" horiz-adv-x="552" d="M96 1624l111 111l252 -252l-53 -53l-232 116zM205 0v1331h143v-1331h-143z" />
<glyph unicode="&#xed;" horiz-adv-x="552" d="M117 1483l252 252l110 -111l-78 -78l-231 -116zM205 0v1331h143v-1331h-143z" />
<glyph unicode="&#xee;" horiz-adv-x="552" d="M43 1483l201 231h65l201 -231l-53 -53l-181 126l-180 -126zM205 0v1331h143v-1331h-143z" />
<glyph unicode="&#xef;" horiz-adv-x="552" d="M61 1464v226h144v-226h-144zM205 0v1331h143v-1331h-143zM348 1464v226h144v-226h-144z" />
<glyph unicode="&#xf0;" horiz-adv-x="1034" d="M63 625v102h142v604h330q160 0 242.5 -75.5t82.5 -211.5v-757q0 -137 -82 -212t-243 -75h-330v625h-142zM348 123h187q86 0 134 48t48 116v757q0 66 -48 115t-134 49h-187v-481h248v-102h-248v-502z" />
<glyph unicode="&#xf1;" horiz-adv-x="1075" d="M205 0v1331h61l51 -133q98 164 273 164q301 0 301 -287v-1075h-143v1075q0 78 -34 121t-124 43t-166 -69.5t-76 -135.5v-1034h-143zM326 1628l84 29q20 -57 69 -58q31 0 88.5 39t109.5 39t89 -41t43 -110l-84 -29q-21 57 -70 57q-31 0 -88 -38.5t-109 -38.5t-89 41 t-43 110z" />
<glyph unicode="&#xf2;" d="M174 256v819q0 137 87 212t260 75t261 -75t88 -212v-819q0 -137 -87 -212t-260 -75t-261 75t-88 212zM317 256q0 -164 205 -164t205 164v819q0 164 -205 164t-205 -164v-819zM319 1624l111 111l252 -252l-53 -53l-232 116z" />
<glyph unicode="&#xf3;" d="M174 256v819q0 137 87 212t260 75t261 -75t88 -212v-819q0 -137 -87 -212t-260 -75t-261 75t-88 212zM317 256q0 -164 205 -164t205 164v819q0 164 -205 164t-205 -164v-819zM403 1483l252 252l111 -111l-78 -78l-231 -116z" />
<glyph unicode="&#xf4;" d="M174 256v819q0 137 87 212t260 75t261 -75t88 -212v-819q0 -137 -87 -212t-260 -75t-261 75t-88 212zM289 1483l200 231h66l201 -231l-54 -53l-180 126l-180 -126zM317 256q0 -164 205 -164t205 164v819q0 164 -205 164t-205 -164v-819z" />
<glyph unicode="&#xf5;" d="M174 256v819q0 137 87 212t260 75t261 -75t88 -212v-819q0 -137 -87 -212t-260 -75t-261 75t-88 212zM281 1628l84 29q20 -57 69 -58q31 0 88.5 39t109.5 39t89 -41t43 -110l-84 -29q-21 57 -70 57q-31 0 -88 -38.5t-109.5 -38.5t-89 41t-42.5 110zM317 256 q0 -164 205 -164t205 164v819q0 164 -205 164t-205 -164v-819z" />
<glyph unicode="&#xf6;" d="M174 256v819q0 137 87 212t260 75t261 -75t88 -212v-819q0 -137 -87 -212t-260 -75t-261 75t-88 212zM307 1464v226h144v-226h-144zM317 256q0 -164 205 -164t205 164v819q0 164 -205 164t-205 -164v-819zM594 1464v226h143v-226h-143z" />
<glyph unicode="&#xf7;" d="M195 604v123h655v-123h-655zM434 238v202h166v-202h-166zM434 891v203h166v-203h-166z" />
<glyph unicode="&#xf8;" d="M174 256v819q0 137 87 212t259 75q55 0 111 -10l24 102h93l-29 -129q152 -68 151 -250v-819q0 -137 -87 -212t-259 -75q-55 0 -112 11l-23 -103h-92l29 127q-152 70 -152 252zM317 256q0 -72 39 -111l248 1084q-41 10 -84 10q-203 0 -203 -164v-819zM440 100q33 -8 84 -8 q203 0 203 164v819q0 66 -41 111z" />
<glyph unicode="&#xf9;" horiz-adv-x="1075" d="M184 256v1075h144v-1075q0 -78 33.5 -121t123.5 -43t166 69.5t76 135.5v1034h143v-1331h-61l-53 131q-45 -74 -116 -118t-155 -44q-301 0 -301 287zM336 1624l110 111l252 -252l-53 -53l-231 116z" />
<glyph unicode="&#xfa;" horiz-adv-x="1075" d="M184 256v1075h144v-1075q0 -78 33.5 -121t123.5 -43t166 69.5t76 135.5v1034h143v-1331h-61l-53 131q-45 -74 -116 -118t-155 -44q-301 0 -301 287zM418 1483l252 252l110 -111l-78 -78l-231 -116z" />
<glyph unicode="&#xfb;" horiz-adv-x="1075" d="M184 256v1075h144v-1075q0 -78 33.5 -121t123.5 -43t166 69.5t76 135.5v1034h143v-1331h-61l-53 131q-45 -74 -116 -118t-155 -44q-301 0 -301 287zM303 1483l201 231h65l201 -231l-53 -53l-180 126l-181 -126z" />
<glyph unicode="&#xfc;" horiz-adv-x="1075" d="M184 256v1075h144v-1075q0 -78 33.5 -121t123.5 -43t166 69.5t76 135.5v1034h143v-1331h-61l-53 131q-45 -74 -116 -118t-155 -44q-301 0 -301 287zM322 1464v226h143v-226h-143zM608 1464v226h144v-226h-144z" />
<glyph unicode="&#xfd;" horiz-adv-x="962" d="M133 659v672h143v-672q0 -164 205 -163.5t205 163.5v672h143v-672q0 -252 -274 -282v-377h-143v377q-279 31 -279 282zM342 1483l252 252l111 -111l-78 -78l-232 -116z" />
<glyph unicode="&#xfe;" horiz-adv-x="942" d="M184 0v1331h144v-205h166q160 0 242.5 -75.5t82.5 -210.5v-348q0 -137 -82 -212t-243 -75h-166v-205h-144zM328 328h166q182 0 182 164v348q0 78 -47 121t-135 43h-166v-676z" />
<glyph unicode="&#xff;" horiz-adv-x="962" d="M133 659v672h143v-672q0 -164 205 -163.5t205 163.5v672h143v-672q0 -252 -274 -282v-377h-143v377q-279 31 -279 282zM268 1464v226h144v-226h-144zM555 1464v226h143v-226h-143z" />
<glyph unicode="&#x152;" horiz-adv-x="1433" d="M174 256v819q0 137 87 212t259 75q111 0 187 -31h604v-123h-469q28 -61 28 -133v-338h359v-123h-359v-358q0 -76 -28 -133h489v-123h-622q-74 -31 -185 -31q-174 0 -262 75t-88 212zM317 256q0 -164 205 -164t205 164v819q0 164 -205 164t-205 -164v-819z" />
<glyph unicode="&#x153;" horiz-adv-x="1576" d="M174 256v819q0 137 87 212t273.5 75t262.5 -109q74 109 254 109t266 -75t86 -212v-450h-533v-369q0 -164 195 -164t195 164v113h143v-113q0 -137 -84 -212t-263 -75t-257 107q-78 -106 -263.5 -106.5t-273.5 74.5t-88 212zM317 256q0 -164 205 -164t205 164v819 q0 164 -205 164t-205 -164v-819zM870 748h390v327q0 164 -195 164t-195 -164v-327z" />
<glyph unicode="&#x178;" horiz-adv-x="921" d="M51 1331h152l258 -686l258 686h151l-338 -856v-475h-143v477zM246 1464v226h143v-226h-143zM532 1464v226h144v-226h-144z" />
<glyph unicode="&#x2c6;" horiz-adv-x="753" d="M143 1483l201 231h66l200 -231l-53 -53l-180 126l-180 -126z" />
<glyph unicode="&#x2dc;" horiz-adv-x="749" d="M133 1628l84 29q20 -57 70 -58q31 0 88 39t109.5 39t89 -41t42.5 -110l-84 -29q-20 57 -69 57q-31 0 -88.5 -38.5t-109.5 -38.5t-89 41t-43 110z" />
<glyph unicode="&#x2000;" horiz-adv-x="875" />
<glyph unicode="&#x2001;" horiz-adv-x="1751" />
<glyph unicode="&#x2002;" horiz-adv-x="875" />
<glyph unicode="&#x2003;" horiz-adv-x="1751" />
<glyph unicode="&#x2004;" horiz-adv-x="583" />
<glyph unicode="&#x2005;" horiz-adv-x="437" />
<glyph unicode="&#x2006;" horiz-adv-x="291" />
<glyph unicode="&#x2007;" horiz-adv-x="291" />
<glyph unicode="&#x2008;" horiz-adv-x="218" />
<glyph unicode="&#x2009;" horiz-adv-x="350" />
<glyph unicode="&#x200a;" horiz-adv-x="97" />
<glyph unicode="&#x2010;" horiz-adv-x="1003" d="M195 614v123h614v-123h-614z" />
<glyph unicode="&#x2011;" horiz-adv-x="1003" d="M195 614v123h614v-123h-614z" />
<glyph unicode="&#x2012;" horiz-adv-x="1003" d="M195 614v123h614v-123h-614z" />
<glyph unicode="&#x2013;" horiz-adv-x="1140" d="M39 604v123h1063v-123h-1063z" />
<glyph unicode="&#x2014;" horiz-adv-x="1308" d="M39 604v123h1231v-123h-1231z" />
<glyph unicode="&#x2018;" horiz-adv-x="532" d="M92 922v194l101 258l65 -12l-31 -215l49 -19v-206h-184z" />
<glyph unicode="&#x2019;" horiz-adv-x="532" d="M174 1157v207h184v-195l-100 -258l-65 13l30 215z" />
<glyph unicode="&#x201a;" horiz-adv-x="532" d="M174 18v207h184v-194l-100 -258l-65 12l30 215z" />
<glyph unicode="&#x201c;" horiz-adv-x="839" d="M92 922v194l101 258l65 -12l-31 -215l49 -19v-206h-184zM399 922v194l101 258l65 -12l-30 -215l49 -19v-206h-185z" />
<glyph unicode="&#x201d;" horiz-adv-x="839" d="M174 1155v207h184v-195l-100 -258l-65 13l30 215zM481 1157v207h185v-195l-101 -258l-65 13l30 215z" />
<glyph unicode="&#x201e;" horiz-adv-x="839" d="M174 18v207h184v-194l-100 -258l-65 12l30 215zM481 18v207h185v-194l-101 -258l-65 12l30 215z" />
<glyph unicode="&#x2022;" horiz-adv-x="587" d="M186 518v293h240v-293h-240z" />
<glyph unicode="&#x2026;" horiz-adv-x="1433" d="M174 0v225h184v-225h-184zM625 0v225h184v-225h-184zM1075 0v225h185v-225h-185z" />
<glyph unicode="&#x202f;" horiz-adv-x="350" />
<glyph unicode="&#x2039;" horiz-adv-x="577" d="M123 621v90l272 348l101 -88l-240 -305l240 -306l-101 -88z" />
<glyph unicode="&#x203a;" horiz-adv-x="577" d="M82 360l240 306l-240 305l100 88l273 -348v-90l-273 -349z" />
<glyph unicode="&#x205f;" horiz-adv-x="437" />
<glyph unicode="&#x20ac;" d="M123 461l20 102h113v205h-133l20 102h113v205q0 137 84 212t252 75q303 0 336 -234l-123 -38q-23 150 -214.5 149.5t-191.5 -164.5v-205h410l-21 -102h-389v-205h410l-21 -102h-389v-205q0 -164 193.5 -164t216.5 150l123 -39q-33 -233 -336 -234q-168 0 -254 75t-86 212 v205h-133z" />
<glyph unicode="&#x2122;" horiz-adv-x="1114" d="M61 1243v88h359v-88h-129v-495h-98v495h-132zM496 748v583h139l92 -344l94 344h140v-583h-99v409h-8l-88 -309h-76l-88 309h-8v-409h-98z" />
<glyph unicode="&#x25fc;" horiz-adv-x="1331" d="M0 0v1331h1331v-1331h-1331z" />
<glyph unicode="&#xfb01;" horiz-adv-x="1320" d="M205 0v1331h563v-123h-420v-471h338v-123h-338v-614h-143zM973 0v1331h143v-1331h-143z" />
<glyph unicode="&#xfb02;" horiz-adv-x="1531" d="M205 0v1331h563v-123h-420v-471h338v-123h-338v-614h-143zM973 0v1331h143v-1208h375v-123h-518z" />
<glyph unicode="&#xfb03;" horiz-adv-x="2252" d="M205 0v1331h563v-123h-420v-471h338v-123h-338v-614h-143zM1055 0v1331h563v-123h-420v-471h338v-123h-338v-614h-143zM1905 0v1331h143v-1331h-143z" />
<glyph unicode="&#xfb04;" horiz-adv-x="2463" d="M205 0v1331h563v-123h-420v-471h338v-123h-338v-614h-143zM1055 0v1331h563v-123h-420v-471h338v-123h-338v-614h-143zM1905 0v1331h143v-1208h375v-123h-518z" />
</font>
</defs>
</svg>
